<?xml version="1.0" standalone="no"?>
<svg xmlns:xlink="http://www.w3.org/1999/xlink" id="wave" style="transform:rotate(180deg); transition: 0.3s" viewBox="0 0 1440 180" version="1.1" xmlns="http://www.w3.org/2000/svg"><defs><linearGradient id="sw-gradient-0" x1="0" x2="0" y1="1" y2="0"><stop stop-color="rgba(243, 106, 62, 1)" offset="0%"/><stop stop-color="rgba(255, 179, 11, 1)" offset="100%"/></linearGradient></defs><path style="transform:translate(0, 0px); opacity:1" fill="url(#sw-gradient-0)" d="M0,108L26.7,90C53.3,72,107,36,160,36C213.3,36,267,72,320,96C373.3,120,427,132,480,117C533.3,102,587,60,640,42C693.3,24,747,30,800,54C853.3,78,907,120,960,123C1013.3,126,1067,90,1120,66C1173.3,42,1227,30,1280,27C1333.3,24,1387,30,1440,30C1493.3,30,1547,24,1600,33C1653.3,42,1707,66,1760,84C1813.3,102,1867,114,1920,123C1973.3,132,2027,138,2080,117C2133.3,96,2187,48,2240,48C2293.3,48,2347,96,2400,108C2453.3,120,2507,96,2560,99C2613.3,102,2667,132,2720,120C2773.3,108,2827,54,2880,39C2933.3,24,2987,48,3040,75C3093.3,102,3147,132,3200,135C3253.3,138,3307,114,3360,108C3413.3,102,3467,114,3520,105C3573.3,96,3627,66,3680,54C3733.3,42,3787,48,3813,51L3840,54L3840,180L3813.3,180C3786.7,180,3733,180,3680,180C3626.7,180,3573,180,3520,180C3466.7,180,3413,180,3360,180C3306.7,180,3253,180,3200,180C3146.7,180,3093,180,3040,180C2986.7,180,2933,180,2880,180C2826.7,180,2773,180,2720,180C2666.7,180,2613,180,2560,180C2506.7,180,2453,180,2400,180C2346.7,180,2293,180,2240,180C2186.7,180,2133,180,2080,180C2026.7,180,1973,180,1920,180C1866.7,180,1813,180,1760,180C1706.7,180,1653,180,1600,180C1546.7,180,1493,180,1440,180C1386.7,180,1333,180,1280,180C1226.7,180,1173,180,1120,180C1066.7,180,1013,180,960,180C906.7,180,853,180,800,180C746.7,180,693,180,640,180C586.7,180,533,180,480,180C426.7,180,373,180,320,180C266.7,180,213,180,160,180C106.7,180,53,180,27,180L0,180Z"/></svg>