<svg xmlns="http://www.w3.org/2000/svg" version="1.1" xmlns:xlink="http://www.w3.org/1999/xlink" xmlns:svgjs="http://svgjs.dev/svgjs" width="1920" height="1080" preserveAspectRatio="none" viewBox="0 0 1920 1080"><g mask="url(&quot;#SvgjsMask15954&quot;)" fill="none"><rect width="1920" height="1080" x="0" y="0" fill="rgba(255, 255, 255, 1)"></rect><rect width="499.96" height="499.96" clip-path="url(&quot;#SvgjsClipPath15955&quot;)" x="1547.02" y="183.08" fill="url(&quot;#SvgjsPattern15956&quot;)" transform="rotate(229.76, 1797, 433.06)"></rect><rect width="496.92" height="496.92" clip-path="url(&quot;#SvgjsClipPath15957&quot;)" x="960.69" y="629.49" fill="url(&quot;#SvgjsPattern15958&quot;)" transform="rotate(196.17, 1209.15, 877.95)"></rect><rect width="428.4" height="428.4" clip-path="url(&quot;#SvgjsClipPath15959&quot;)" x="1366.58" y="685.97" fill="url(&quot;#SvgjsPattern15960&quot;)" transform="rotate(44.95, 1580.78, 900.17)"></rect><rect width="131.8" height="131.8" clip-path="url(&quot;#SvgjsClipPath15961&quot;)" x="869.42" y="125.82" fill="url(&quot;#SvgjsPattern15962&quot;)" transform="rotate(33.38, 935.32, 191.72)"></rect><path d="M180.1 389.23a5.6 5.6 0 1 0-11.04-1.92 5.6 5.6 0 1 0 11.04 1.92zM164.33 386.49a5.6 5.6 0 1 0-11.03-1.92 5.6 5.6 0 1 0 11.03 1.92zM148.57 383.75a5.6 5.6 0 1 0-11.03-1.92 5.6 5.6 0 1 0 11.03 1.92zM132.81 381.01a5.6 5.6 0 1 0-11.04-1.92 5.6 5.6 0 1 0 11.04 1.92zM214.37 378.96a5.6 5.6 0 1 0-11.04-1.92 5.6 5.6 0 1 0 11.04 1.92zM198.6 376.21a5.6 5.6 0 1 0-11.03-1.92 5.6 5.6 0 1 0 11.03 1.92zM182.84 373.47a5.6 5.6 0 1 0-11.03-1.92 5.6 5.6 0 1 0 11.03 1.92zM167.08 370.73a5.6 5.6 0 1 0-11.04-1.92 5.6 5.6 0 1 0 11.04 1.92zM248.64 368.68a5.6 5.6 0 1 0-11.04-1.92 5.6 5.6 0 1 0 11.04 1.92zM232.87 365.94a5.6 5.6 0 1 0-11.03-1.92 5.6 5.6 0 1 0 11.03 1.92zM217.11 363.19a5.6 5.6 0 1 0-11.03-1.92 5.6 5.6 0 1 0 11.03 1.92zM201.35 360.45a5.6 5.6 0 1 0-11.04-1.92 5.6 5.6 0 1 0 11.04 1.92z" fill="rgba(255, 179, 11, 1)"></path><rect width="431.36" height="431.36" clip-path="url(&quot;#SvgjsClipPath15963&quot;)" x="960.17" y="22.4" fill="url(&quot;#SvgjsPattern15964&quot;)" transform="rotate(295.11, 1175.85, 238.08)"></rect><path d="M242.28 891.45 L129.87 1171.03L380.3942708858709 1225.559270885871z" fill="rgba(243, 106, 62, 1)"></path><path d="M2176.24 858.05 L2081.53 1062.87L2231.444057880435 1063.019057880435z" stroke="rgba(243, 106, 62, 1)" stroke-width="1.89" stroke-dasharray="3, 3"></path></g><defs><mask id="SvgjsMask15954"><rect width="1920" height="1080" fill="#ffffff"></rect></mask><pattern x="0" y="0" width="8.62" height="8.62" patternUnits="userSpaceOnUse" id="SvgjsPattern15956"><path d="M0 8.62L4.31 0L8.62 8.62" stroke="rgba(243, 106, 62, 1)" fill="none"></path></pattern><clipPath id="SvgjsClipPath15955"><circle r="124.99" cx="1797" cy="433.06"></circle></clipPath><pattern x="0" y="0" width="496.92" height="6.06" patternUnits="userSpaceOnUse" id="SvgjsPattern15958"><rect width="496.92" height="3.03" x="0" y="0" fill="rgba(160, 84, 183, 1)"></rect><rect width="496.92" height="3.03" x="0" y="3.03" fill="rgba(0, 0, 0, 0)"></rect></pattern><clipPath id="SvgjsClipPath15957"><circle r="124.23" cx="1209.15" cy="877.95"></circle></clipPath><pattern x="0" y="0" width="10.2" height="10.2" patternUnits="userSpaceOnUse" id="SvgjsPattern15960"><path d="M5.1 1L5.1 9.2M1 5.1L9.2 5.1" stroke="rgba(74, 168, 50, 1)" fill="none" stroke-width="1.35"></path></pattern><clipPath id="SvgjsClipPath15959"><circle r="107.1" cx="1580.78" cy="900.17"></circle></clipPath><pattern x="0" y="0" width="13.18" height="13.18" patternUnits="userSpaceOnUse" id="SvgjsPattern15962"><path d="M6.59 1L6.59 12.18M1 6.59L12.18 6.59" stroke="rgba(243, 106, 62, 1)" fill="none" stroke-width="5.15"></path></pattern><clipPath id="SvgjsClipPath15961"><circle r="32.95" cx="935.32" cy="191.72"></circle></clipPath><pattern x="0" y="0" width="431.36" height="6.74" patternUnits="userSpaceOnUse" id="SvgjsPattern15964"><rect width="431.36" height="3.37" x="0" y="0" fill="rgba(243, 106, 62, 1)"></rect><rect width="431.36" height="3.37" x="0" y="3.37" fill="rgba(0, 0, 0, 0)"></rect></pattern><clipPath id="SvgjsClipPath15963"><circle r="107.84" cx="1175.85" cy="238.08"></circle></clipPath></defs></svg>